PathFileType	4	(X/Y/Z)	s07c0301.trc
DataRate	CameraRate	NumFrames	NumMarkers	Units	OrigDataRate	OrigDataStartFrame	OrigNumFrames
200	200	4	48	mm	200	750	2000
Frame#	Time	racr			lacr			c7			jug			rlel			rdr			llel			ldr			s2			lic			ric			lasi			rasi			rpsi			lpsi			rgt			lgt			rth1			rth2			rth3			rth4			rlfc			rmfc			rsh1			rsh2			rsh3			rsh4			rlmal			rcal			rtoe			rmt5			lth1			lth2			lth4			lth3			llfc			lmfc			lsh1			lsh2			lsh3			lsh4			llmal			lcal			ltoe			lmt5			SBIKE			LBIKE			RBIKE			
		X1	Y1	Z1	X2	Y2	Z2	X3	Y3	Z3	X4	Y4	Z4	X5	Y5	Z5	X6	Y6	Z6	X7	Y7	Z7	X8	Y8	Z8	X9	Y9	Z9	X10	Y10	Z10	X11	Y11	Z11	X12	Y12	Z12	X13	Y13	Z13	X14	Y14	Z14	X15	Y15	Z15	X16	Y16	Z16	X17	Y17	Z17	X18	Y18	Z18	X19	Y19	Z19	X20	Y20	Z20	X21	Y21	Z21	X22	Y22	Z22	X23	Y23	Z23	X24	Y24	Z24	X25	Y25	Z25	X26	Y26	Z26	X27	Y27	Z27	X28	Y28	Z28	X29	Y29	Z29	X30	Y30	Z30	X31	Y31	Z31	X32	Y32	Z32	X33	Y33	Z33	X34	Y34	Z34	X35	Y35	Z35	X36	Y36	Z36	X37	Y37	Z37	X38	Y38	Z38	X39	Y39	Z39	X40	Y40	Z40	X41	Y41	Z41	X42	Y42	Z42	X43	Y43	Z43	X44	Y44	Z44	X45	Y45	Z45	X46	Y46	Z46	X47	Y47	Z47	X48	Y48	Z48	
750	3.7500	827.427966	1385.275336	-116.854886	786.688228	1436.390336	-447.926928	811.587649	1465.961842	-274.278683	753.019065	1325.537480	-302.388602	582.921589	1146.541969	12.188239	728.894368	919.348048	-79.123517	579.443566	1151.732483	-514.279094	723.314650	908.474135	-419.545162	217.590040	1272.842352	-224.922974	360.829006	1331.132979	-371.490176	420.413063	1258.471024	-106.500076	381.551861	1247.035567	-371.376959	421.016485	1204.806446	-123.172311	261.364478	1301.127224	-174.214460	250.723192	1324.337583	-278.970417	321.839335	1142.327480	-67.649906	292.658484	1186.091805	-426.911770	336.823716	996.312325	-69.004205	349.877298	909.890369	-75.453853	323.233918	828.613182	-70.738776	383.372125	907.641960	-90.587927	301.211086	688.708322	-100.499838	273.305144	677.043206	-199.360321	224.684888	570.898164	-63.717846	200.449913	485.793608	-79.113734	142.772676	421.852093	-68.220658	212.341486	481.229948	-117.132584	68.923885	304.502634	-64.893295	-6.309545	307.873982	-85.310691	214.061187	123.267780	-134.645043	138.450566	136.024210	-55.566319	377.709035	1098.411497	-440.978044	459.529904	1066.409049	-450.527390	481.833648	1094.392242	-441.452760	515.421418	996.997931	-454.325253	636.626729	866.534043	-434.745572	635.911603	852.324623	-332.031561	524.839160	771.811556	-438.980423	467.209695	712.119919	-415.396535	381.863565	682.854418	-416.818009	472.224932	715.121323	-374.270333	261.196424	618.110573	-410.868313	184.247150	639.220412	-373.826987	371.886332	417.781679	-360.539977	291.004925	446.353341	-429.346134	-264.157282	973.341403	-238.117244	-83.700027	79.458757	-437.517983	-83.746020	79.511324	-39.792417	
751	3.7550	827.643748	1385.562909	-118.530722	787.864016	1435.713180	-450.194783	813.073741	1465.304466	-276.923423	752.851077	1325.720582	-304.716378	583.298311	1147.230159	10.510664	728.897936	918.397076	-80.021333	578.783297	1151.732684	-514.761541	723.117230	909.036838	-419.511690	217.913146	1277.901811	-223.626073	360.337080	1335.040814	-371.037469	421.095996	1263.161168	-106.114311	380.775011	1250.695583	-370.787512	421.745254	1209.185457	-122.847005	262.574226	1305.343470	-173.705099	250.932774	1329.146908	-277.913795	323.207665	1146.248278	-66.955689	291.204829	1190.195947	-425.312327	339.361805	999.963733	-69.616404	353.390868	913.682765	-76.016025	327.646817	832.009524	-71.476795	386.891986	911.755973	-90.927686	306.951149	691.876308	-101.189984	278.809509	680.743009	-199.809670	228.301431	575.407295	-64.078953	202.421440	490.771480	-79.208383	143.576185	428.032098	-67.885998	213.967283	485.773580	-117.403878	67.604240	312.248166	-64.064213	-7.233898	318.653441	-85.231017	204.045654	124.031729	-134.556748	129.208332	140.393065	-55.465204	374.965710	1101.274953	-439.249066	456.541774	1068.782107	-449.393994	479.060363	1096.788965	-440.975241	511.886824	998.992428	-453.407887	634.004170	867.962460	-433.857476	632.150110	854.149844	-330.871482	522.900649	772.019521	-438.594846	466.624483	710.700060	-415.484412	382.040626	679.722353	-416.709422	471.890750	713.503663	-374.212105	262.951548	612.961151	-410.630122	184.726297	630.151798	-373.859486	382.266960	417.977514	-360.778619	298.878354	442.500996	-429.785262	-264.140890	973.471578	-238.194071	-83.693078	79.514126	-437.533472	-83.734906	79.576138	-39.825208	
752	3.7600	828.511090	1384.878808	-121.967148	789.226803	1434.337275	-452.363852	814.642310	1464.148727	-279.663664	752.904801	1325.491451	-307.421756	583.481177	1147.822597	9.029315	728.650396	918.199043	-79.980885	578.005550	1151.711253	-515.498369	722.808323	909.590570	-419.515832	218.324233	1283.208230	-222.390792	359.958317	1339.077221	-370.719877	421.701082	1268.063465	-105.477590	379.983223	1254.465358	-370.183707	422.188274	1213.710592	-122.709760	263.294824	1310.199532	-172.624847	251.243108	1334.161483	-276.914867	324.553657	1150.262125	-66.119850	289.643674	1194.275849	-423.707624	342.286907	1003.373855	-70.261559	357.457898	917.357510	-77.009774	332.997420	835.269138	-72.549249	391.058838	915.985293	-91.725481	313.858885	694.849886	-102.340412	286.272992	683.964886	-200.223377	232.912415	580.032244	-64.769809	205.248867	495.913312	-79.681581	145.291530	434.283219	-67.934056	216.485363	490.600804	-117.798665	66.917542	320.441138	-63.534870	-7.404563	329.723342	-85.298677	194.142272	125.401383	-134.442563	120.295401	145.439648	-55.408822	372.091663	1103.978370	-437.545716	453.281968	1070.860788	-448.179244	476.087216	1098.761252	-440.308757	508.058985	1000.547424	-452.212380	630.531043	868.408884	-432.950394	628.239376	854.350433	-329.572789	520.003296	771.109332	-438.245888	465.249008	708.340826	-415.425837	381.306588	675.529728	-416.621207	463.961248	701.018685	-360.806549	263.940096	606.443745	-410.241234	184.326305	619.664398	-374.001419	391.808503	418.061355	-360.890893	306.329515	438.099844	-430.212861	-264.096544	973.616348	-238.200912	-83.694297	79.584705	-437.523270	-83.730090	79.654509	-39.835336	
753	3.7650	829.693147	1383.517578	-126.284832	790.706389	1432.453103	-454.353357	816.013709	1462.353349	-282.214257	753.318836	1325.340251	-310.813868	583.568683	1148.182199	7.794620	728.720952	918.088329	-80.055952	576.954391	1151.574311	-516.339087	722.444753	910.171921	-419.554448	218.756793	1288.652544	-221.109871	359.696151	1343.073069	-370.569028	422.195185	1273.109577	-104.801385	379.259999	1258.277462	-369.532544	422.672107	1218.222553	-122.433136	264.121677	1315.059995	-171.594344	251.704228	1339.238095	-275.762387	325.899539	1154.086218	-65.138952	288.137121	1198.286751	-422.156257	345.568925	1006.666882	-70.966350	362.114395	920.908287	-78.186566	339.157863	838.431005	-73.888940	395.659251	920.188658	-93.109736	321.634039	697.793971	-103.636917	293.677896	687.240460	-201.588346	238.301029	584.722422	-65.764421	208.778183	501.258494	-80.449229	147.540837	440.960680	-68.304962	219.824666	495.634993	-118.580896	66.761655	328.949899	-63.352187	-6.542731	341.065145	-85.549573	184.710281	127.490024	-134.095501	111.759274	151.158339	-55.386598	369.200100	1106.581765	-435.985535	449.939687	1072.489055	-446.836176	473.092047	1100.149298	-439.303985	503.877187	1001.639932	-451.013107	626.009933	868.306380	-432.122679	623.599245	853.554413	-329.069583	516.158868	769.182978	-438.047031	462.952103	704.952581	-415.457390	379.783706	670.294068	-416.527157	461.513918	697.766419	-360.568392	264.140866	598.471249	-409.903913	183.420410	608.121740	-375.013602	401.393819	417.848902	-362.157320	313.336002	433.154804	-430.621916	-264.037203	973.688246	-238.201088	-83.687859	79.644189	-437.532961	-83.708118	79.739419	-39.834983	
